<svg viewBox="0 0 20 20" xmlns="http://www.w3.org/2000/svg" fill-rule="evenodd" clip-rule="evenodd" stroke-linejoin="round" stroke-miterlimit="2"><path d="M14.76 17.192s-.616-.736-1.13-1.387c2.243-.634 3.1-2.038 3.1-2.038a9.799 9.799 0 01-1.97 1.01c-.856.36-1.678.6-2.483.737-1.643.308-3.15.222-4.435-.017a14.374 14.374 0 01-2.517-.737 10.035 10.035 0 01-1.25-.582c-.051-.034-.102-.051-.154-.085-.034-.018-.051-.035-.068-.052-.308-.171-.48-.291-.48-.291s.822 1.37 2.997 2.02c-.514.651-1.147 1.422-1.147 1.422C1.438 17.072 0 14.589 0 14.589c0-5.514 2.466-9.983 2.466-9.983 2.465-1.85 4.811-1.798 4.811-1.798l.172.206c-3.083.89-4.504 2.243-4.504 2.243s.377-.206 1.01-.497c1.833-.804 3.288-1.027 3.887-1.078.103-.018.189-.035.292-.035a14.488 14.488 0 013.458-.034c1.627.188 3.374.668 5.155 1.644 0 0-1.353-1.284-4.264-2.175l.24-.274s2.345-.051 4.811 1.798c0 0 2.466 4.47 2.466 9.983 0 0-1.456 2.483-5.24 2.603zM6.798 9.195c-.976 0-1.747.856-1.747 1.9 0 1.045.788 1.902 1.747 1.902.976 0 1.747-.857 1.747-1.901.017-1.045-.771-1.9-1.747-1.9zm6.25 0c-.976 0-1.747.856-1.747 1.9 0 1.045.788 1.902 1.747 1.902.976 0 1.746-.857 1.746-1.901 0-1.045-.77-1.9-1.746-1.9z" fill-rule="nonzero"/></svg>