<svg viewBox="0 0 20 20" xmlns="http://www.w3.org/2000/svg" ><path fill-rule="evenodd" d="M7.155 18.54C3.58 17.349 1 13.973 1 10c0-4.967 4.033-9 9-9s9 4.033 9 9c0 3.982-2.592 7.364-6.179 8.548-.414.061-.57-.208-.57-.436 0-.303.011-1.271.011-2.475 0-.844-.281-1.384-.608-1.665 2.003-.225 4.107-.99 4.107-4.444 0-.99-.349-1.789-.923-2.419.09-.225.405-1.147-.09-2.385 0 0-.753-.248-2.475.923a8.332 8.332 0 00-2.25-.304c-.765 0-1.53.101-2.25.304-1.721-1.159-2.475-.923-2.475-.923-.495 1.238-.18 2.16-.09 2.385a3.502 3.502 0 00-.923 2.419c0 3.443 2.093 4.219 4.096 4.444-.259.225-.496.619-.574 1.204-.518.236-1.812.619-2.622-.743-.168-.27-.675-.933-1.384-.922-.753.011-.303.427.012.596.382.214.821 1.013.922 1.271.18.507.765 1.474 3.027 1.058 0 .754.011 1.463.011 1.676 0 .237-.169.507-.619.428h.001z"/></svg>