<svg viewBox="0 0 20 20" xmlns="http://www.w3.org/2000/svg"><path d="M19 2.775v14.45c0 .98-.795 1.775-1.775 1.775H2.775C1.795 19 1 18.205 1 17.225V2.775C1 1.795 1.795 1 2.775 1h14.45C18.205 1 19 1.795 19 2.775zM2.5 17.5h3.333V6.667H2.5V17.5zM13.833 6.833c-1.75 0-2.75 1-3.166 1.667h-.084l-.166-1.417h-3c0 .917.083 2 .083 3.25V17.5h3.333v-5.917c0-.333 0-.583.084-.833.25-.583.666-1.333 1.583-1.333 1.167 0 1.667 1 1.667 2.333v5.75H17.5v-6.167c0-3.083-1.583-4.5-3.667-4.5zm-8-2.666c0-.917-.666-1.667-1.666-1.667-1 0-1.667.833-1.667 1.75 0 .833.667 1.583 1.667 1.583 1.083 0 1.666-.75 1.666-1.666z" fill-rule="nonzero"/></svg>