<svg viewBox="0 0 20 20" xmlns="http://www.w3.org/2000/svg" fill-rule="evenodd" clip-rule="evenodd" stroke-linejoin="round" stroke-miterlimit="2"><path d="M19 2.775C19 1.795 18.205 1 17.225 1H2.775C1.795 1 1 1.795 1 2.775v14.45C1 18.205 1.795 19 2.775 19h14.45c.98 0 1.775-.795 1.775-1.775V2.775zM2.5 17.5h3.333V6.667H2.5V17.5zM13.833 6.833c-1.75 0-2.75 1-3.166 1.667h-.084l-.166-1.417h-3c0 .917.083 2 .083 3.25V17.5h3.333v-5.917c0-.333 0-.583.084-.833.25-.583.666-1.333 1.583-1.333 1.167 0 1.667 1 1.667 2.333v5.75H17.5v-6.167c0-3.083-1.583-4.5-3.667-4.5zm-8-2.666c0 .916-.583 1.666-1.666 1.666-1 0-1.667-.75-1.667-1.583 0-.917.667-1.75 1.667-1.75s1.666.75 1.666 1.667z"/></svg>