<svg viewBox="0 0 20 20" xmlns="http://www.w3.org/2000/svg" fill-rule="evenodd" clip-rule="evenodd"><path d="M16.48 2.194L13.798 4.31c.104.15.469.762.469 1.937 0 2.204-2.393 2.956-2.393 4.055 0 1.099 3.137 1.869 3.137 4.576 0 2.343-2.277 4.122-5.566 4.122-3.522 0-4.611-1.619-4.631-3.152-.02-1.533 1.444-2.62 2.156-2.927.712-.307 2.309-.665 3.501-.705 0 .001-.589-.842-.621-1.447-.033-.605.229-.656.225-.883 0-.001-.945.123-1.376.016-.93-.23-2.768-.747-2.82-3.702l-3.845-.033L8.067 1l9.899.022-.707.558c-.133.174-.273.384-.275.752-.004.613.397 1.22.408 1.59.01.371-.078.546-.078 1.078 0 .531.186 1.749.186 3.512 0 .454.084 1.581-.695 1.581-.779 0-.763-.748-.763-2.256 0-.922.115-1.875.132-2.704.01-.546-.085-.893-.085-1.031 0-.636.223-.701.352-1.103.081-.253.047-.8.047-.8l-.008-.005zm-5.302 10.639s2.435 1.362 2.374 2.844c-.061 1.483-1.286 2.387-3.104 2.387s-3.803-.773-3.775-2.743c.025-1.849 2.314-2.488 4.505-2.488zM9.005 3.232c1.023-.399 2.517.102 3.126 2.304s.051 3.175-.953 3.599c-1.004.424-2.496.132-3.159-2.09-.663-2.222-.038-3.414.986-3.813z" stroke="#000" stroke-width=".1"/></svg>