<svg viewBox="0 0 20 20" xmlns="http://www.w3.org/2000/svg" fill-rule="evenodd" clip-rule="evenodd"><path d="M19 2.794C19 1.804 18.196 1 17.206 1H2.794C1.804 1 1 1.804 1 2.794v14.412C1 18.196 1.804 19 2.794 19h14.412c.99 0 1.794-.804 1.794-1.794V2.794zm-3.6.701l.007.004s.028.456-.04.667c-.107.335-.293.389-.293.919 0 .115.079.404.071.859-.014.691-.11 1.485-.11 2.253 0 1.257-.013 1.88.636 1.88s.579-.939.579-1.317c0-1.469-.155-2.484-.155-2.927 0-.443.073-.589.065-.898-.009-.308-.343-.814-.34-1.325a.955.955 0 01.229-.627l.589-.465L8.389 2.5 3.362 6.806l3.204.027c.043 2.463 1.575 2.894 2.35 3.085.359.089 1.147-.014 1.147-.013.003.189-.215.232-.188.736.027.504.518 1.206.518 1.206-.994.033-2.325.331-2.918.587-.593.256-1.813 1.162-1.797 2.439.017 1.278.925 2.627 3.86 2.627 2.74 0 4.638-1.483 4.638-3.435 0-2.256-2.614-2.898-2.614-3.813 0-.916 1.994-1.543 1.994-3.379 0-.98-.304-1.49-.391-1.615L15.4 3.495zm-4.418 8.866s2.029 1.135 1.978 2.37c-.051 1.236-1.072 1.989-2.587 1.989-1.515 0-3.169-.644-3.145-2.286.02-1.541 1.928-2.073 3.754-2.073zM9.171 4.36c.852-.333 2.097.085 2.605 1.92.507 1.835.042 2.646-.794 2.999-.837.353-2.08.11-2.633-1.742-.552-1.851-.032-2.844.822-3.177z" /></svg>