<svg viewBox="0 0 20 20" xmlns="http://www.w3.org/2000/svg"><path fill-rule="evenodd" d="M19 2.794C19 1.804 18.196 1 17.206 1H2.794C1.804 1 1 1.804 1 2.794v14.412C1 18.196 1.804 19 2.794 19h14.412c.99 0 1.794-.804 1.794-1.794V2.794zm-3.6.701l-2.235 1.763c.087.125.391.635.391 1.615 0 1.836-1.994 2.463-1.994 3.379 0 .915 2.614 1.557 2.614 3.813 0 1.952-1.898 3.435-4.638 3.435-2.935 0-3.843-1.349-3.86-2.627-.016-1.277 1.204-2.183 1.797-2.439.593-.256 1.924-.554 2.918-.587 0 0-.491-.702-.518-1.206-.027-.504.191-.547.188-.736 0-.001-.788.102-1.147.013-.775-.191-2.307-.622-2.35-3.085l-3.204-.027L8.389 2.5l8.249.018-.589.465a.955.955 0 00-.229.627c-.003.511.331 1.017.34 1.325.008.309-.065.455-.065.898s.155 1.458.155 2.927c0 .378.07 1.317-.579 1.317s-.636-.623-.636-1.88c0-.768.096-1.562.11-2.253.008-.455-.071-.744-.071-.859 0-.53.186-.584.293-.919.068-.211.04-.667.04-.667l-.007-.004zm-4.418 8.866c-1.826 0-3.734.532-3.754 2.073-.024 1.642 1.63 2.286 3.145 2.286 1.515 0 2.536-.753 2.587-1.989.051-1.235-1.978-2.37-1.978-2.37zM9.171 4.36c-.854.333-1.374 1.326-.822 3.177.553 1.852 1.796 2.095 2.633 1.742.836-.353 1.301-1.164.794-2.999-.508-1.835-1.753-2.253-2.605-1.92z" /></svg>